<svg width="51" height="44" viewBox="0 0 51 44" fill="none" xmlns="http://www.w3.org/2000/svg">
<g id="LOGO">
<g id="Vector">
<path d="M40.073 37.8028H10.7338H3.60998L0 44H50.8068L25.4034 0L7.57332 30.8826H14.7292L25.4034 12.3944L40.073 37.8028Z" fill="#74F600"/>
<path d="M11.0557 34.3637V34.9108H9.68794V34.3637H11.0557Z" fill="white"/>
<path d="M20.947 34.3056V34.4726C20.947 34.7405 20.9107 34.981 20.838 35.194C20.7654 35.4071 20.6629 35.5886 20.5306 35.7387C20.3983 35.8872 20.2401 36.001 20.0561 36.08C19.8738 36.1591 19.6712 36.1987 19.4485 36.1987C19.2274 36.1987 19.0249 36.1591 18.8409 36.08C18.6585 36.001 18.5004 35.8872 18.3664 35.7387C18.2325 35.5886 18.1284 35.4071 18.0541 35.194C17.9815 34.981 17.9452 34.7405 17.9452 34.4726V34.3056C17.9452 34.0361 17.9815 33.7956 18.0541 33.5842C18.1268 33.3712 18.2292 33.1896 18.3616 33.0395C18.4955 32.8895 18.6537 32.7749 18.836 32.6958C19.02 32.6167 19.2226 32.5772 19.4437 32.5772C19.6664 32.5772 19.8689 32.6167 20.0513 32.6958C20.2353 32.7749 20.3934 32.8895 20.5257 33.0395C20.6597 33.1896 20.763 33.3712 20.8356 33.5842C20.9098 33.7956 20.947 34.0361 20.947 34.3056ZM20.2135 34.4726V34.3008C20.2135 34.1136 20.1965 33.9489 20.1626 33.8069C20.1287 33.6649 20.0787 33.5455 20.0125 33.4487C19.9464 33.3518 19.8657 33.2792 19.7705 33.2308C19.6752 33.1808 19.5663 33.1557 19.4437 33.1557C19.321 33.1557 19.2121 33.1808 19.1169 33.2308C19.0233 33.2792 18.9434 33.3518 18.8772 33.4487C18.8126 33.5455 18.7634 33.6649 18.7295 33.8069C18.6956 33.9489 18.6787 34.1136 18.6787 34.3008V34.4726C18.6787 34.6582 18.6956 34.8228 18.7295 34.9665C18.7634 35.1085 18.8135 35.2287 18.8796 35.3272C18.9458 35.424 19.0265 35.4974 19.1217 35.5475C19.2169 35.5975 19.3259 35.6225 19.4485 35.6225C19.5712 35.6225 19.6801 35.5975 19.7753 35.5475C19.8705 35.4974 19.9504 35.424 20.015 35.3272C20.0795 35.2287 20.1287 35.1085 20.1626 34.9665C20.1965 34.8228 20.2135 34.6582 20.2135 34.4726Z" fill="white"/>
<path d="M27.2071 34.3056V34.4726C27.2071 34.7405 27.1708 34.981 27.0982 35.194C27.0255 35.4071 26.923 35.5886 26.7907 35.7387C26.6584 35.8872 26.5002 36.001 26.3162 36.08C26.1339 36.1591 25.9313 36.1987 25.7086 36.1987C25.4875 36.1987 25.285 36.1591 25.101 36.08C24.9186 36.001 24.7605 35.8872 24.6265 35.7387C24.4926 35.5886 24.3885 35.4071 24.3143 35.194C24.2416 34.981 24.2053 34.7405 24.2053 34.4726V34.3056C24.2053 34.0361 24.2416 33.7956 24.3143 33.5842C24.3869 33.3712 24.4894 33.1896 24.6217 33.0395C24.7556 32.8895 24.9138 32.7749 25.0962 32.6958C25.2801 32.6167 25.4827 32.5772 25.7038 32.5772C25.9265 32.5772 26.129 32.6167 26.3114 32.6958C26.4954 32.7749 26.6535 32.8895 26.7859 33.0395C26.9198 33.1896 27.0231 33.3712 27.0957 33.5842C27.17 33.7956 27.2071 34.0361 27.2071 34.3056ZM26.4736 34.4726V34.3008C26.4736 34.1136 26.4566 33.9489 26.4228 33.8069C26.3889 33.6649 26.3388 33.5455 26.2727 33.4487C26.2065 33.3518 26.1258 33.2792 26.0306 33.2308C25.9354 33.1808 25.8264 33.1557 25.7038 33.1557C25.5811 33.1557 25.4722 33.1808 25.377 33.2308C25.2834 33.2792 25.2035 33.3518 25.1373 33.4487C25.0728 33.5455 25.0235 33.6649 24.9897 33.8069C24.9558 33.9489 24.9388 34.1136 24.9388 34.3008V34.4726C24.9388 34.6582 24.9558 34.8228 24.9897 34.9665C25.0235 35.1085 25.0736 35.2287 25.1397 35.3272C25.2059 35.424 25.2866 35.4974 25.3818 35.5475C25.477 35.5975 25.586 35.6225 25.7086 35.6225C25.8313 35.6225 25.9402 35.5975 26.0354 35.5475C26.1306 35.4974 26.2105 35.424 26.2751 35.3272C26.3396 35.2287 26.3889 35.1085 26.4228 34.9665C26.4566 34.8228 26.4736 34.6582 26.4736 34.4726Z" fill="white"/>
<path d="M29.7731 34.981H30.4969C30.4824 35.2182 30.417 35.4288 30.3008 35.6128C30.1863 35.7968 30.0257 35.9404 29.8191 36.0437C29.6141 36.147 29.3672 36.1987 29.0783 36.1987C28.8524 36.1987 28.6499 36.1599 28.4707 36.0825C28.2916 36.0034 28.1383 35.8904 28.0108 35.7435C27.8849 35.5967 27.7889 35.4192 27.7227 35.211C27.6565 35.0028 27.6235 34.7696 27.6235 34.5114V34.2669C27.6235 34.0087 27.6574 33.7755 27.7251 33.5673C27.7945 33.3575 27.893 33.1791 28.0205 33.0323C28.1496 32.8854 28.3037 32.7724 28.4828 32.6934C28.662 32.6143 28.8621 32.5747 29.0832 32.5747C29.3769 32.5747 29.6246 32.628 29.8264 32.7345C30.0297 32.841 30.1871 32.9879 30.2984 33.1751C30.4114 33.3623 30.4792 33.5753 30.5018 33.8142H29.7755C29.7675 33.6722 29.7392 33.5519 29.6908 33.4535C29.6424 33.3534 29.569 33.2784 29.4705 33.2284C29.3737 33.1767 29.2446 33.1509 29.0832 33.1509C28.9621 33.1509 28.8564 33.1735 28.7661 33.2187C28.6757 33.2639 28.5998 33.3325 28.5385 33.4244C28.4772 33.5164 28.4312 33.6326 28.4005 33.773C28.3715 33.9118 28.357 34.0748 28.357 34.262V34.5114C28.357 34.6937 28.3707 34.8543 28.3981 34.9931C28.4255 35.1303 28.4675 35.2465 28.524 35.3417C28.5821 35.4353 28.6563 35.5063 28.7467 35.5547C28.8387 35.6015 28.9492 35.6249 29.0783 35.6249C29.23 35.6249 29.3551 35.6007 29.4536 35.5523C29.552 35.5039 29.6271 35.4321 29.6787 35.3369C29.732 35.2416 29.7634 35.123 29.7731 34.981Z" fill="white"/>
<path d="M33.8691 34.3056V34.4726C33.8691 34.7405 33.8327 34.981 33.7601 35.194C33.6875 35.4071 33.585 35.5886 33.4527 35.7387C33.3204 35.8872 33.1622 36.001 32.9782 36.08C32.7958 36.1591 32.5933 36.1987 32.3706 36.1987C32.1495 36.1987 31.947 36.1591 31.763 36.08C31.5806 36.001 31.4225 35.8872 31.2885 35.7387C31.1546 35.5886 31.0505 35.4071 30.9762 35.194C30.9036 34.981 30.8673 34.7405 30.8673 34.4726V34.3056C30.8673 34.0361 30.9036 33.7956 30.9762 33.5842C31.0489 33.3712 31.1513 33.1896 31.2837 33.0395C31.4176 32.8895 31.5758 32.7749 31.7581 32.6958C31.9421 32.6167 32.1447 32.5772 32.3658 32.5772C32.5885 32.5772 32.791 32.6167 32.9734 32.6958C33.1574 32.7749 33.3155 32.8895 33.4478 33.0395C33.5818 33.1896 33.6851 33.3712 33.7577 33.5842C33.8319 33.7956 33.8691 34.0361 33.8691 34.3056ZM33.1356 34.4726V34.3008C33.1356 34.1136 33.1186 33.9489 33.0847 33.8069C33.0508 33.6649 33.0008 33.5455 32.9346 33.4487C32.8685 33.3518 32.7878 33.2792 32.6926 33.2308C32.5973 33.1808 32.4884 33.1557 32.3658 33.1557C32.2431 33.1557 32.1342 33.1808 32.039 33.2308C31.9453 33.2792 31.8655 33.3518 31.7993 33.4487C31.7347 33.5455 31.6855 33.6649 31.6516 33.8069C31.6177 33.9489 31.6008 34.1136 31.6008 34.3008V34.4726C31.6008 34.6582 31.6177 34.8228 31.6516 34.9665C31.6855 35.1085 31.7355 35.2287 31.8017 35.3272C31.8679 35.424 31.9486 35.4974 32.0438 35.5475C32.139 35.5975 32.2479 35.6225 32.3706 35.6225C32.4933 35.6225 32.6022 35.5975 32.6974 35.5475C32.7926 35.4974 32.8725 35.424 32.9371 35.3272C33.0016 35.2287 33.0508 35.1085 33.0847 34.9665C33.1186 34.8228 33.1356 34.6582 33.1356 34.4726Z" fill="white"/>
<path fill-rule="evenodd" clip-rule="evenodd" d="M9.30062 36.1502V35.5838H7.66175V34.613H9.05612V34.0611H7.66175V33.1945H9.2982V32.6256H7.66175H7.42452H6.93552V36.1502H7.42452H7.66175H9.30062ZM7.66175 34.0611H7.42452V34.613H7.66175V34.0611Z" fill="white"/>
<path d="M7.42452 34.0611V34.613H7.66175V34.0611H7.42452Z" fill="white"/>
<path fill-rule="evenodd" clip-rule="evenodd" d="M12.4065 34.8939H13.0528C13.3288 34.8939 13.5652 34.8487 13.7621 34.7583C13.9606 34.6679 14.1123 34.5396 14.2172 34.3734C14.3221 34.2072 14.3746 34.0103 14.3746 33.7827C14.3746 33.5584 14.3221 33.3591 14.2172 33.1848C14.1123 33.0105 13.9606 32.8741 13.7621 32.7757C13.5652 32.6756 13.3288 32.6256 13.0528 32.6256H11.6802V36.1502H12.4065V34.8939ZM12.4065 34.3274H13.0528C13.1916 34.3274 13.3046 34.3048 13.3917 34.2596C13.4789 34.2128 13.5426 34.1483 13.583 34.0659C13.6233 33.9836 13.6435 33.8908 13.6435 33.7876C13.6435 33.6827 13.6233 33.585 13.583 33.4946C13.5426 33.4043 13.4789 33.3316 13.3917 33.2768C13.3046 33.2219 13.1916 33.1945 13.0528 33.1945H12.4065V34.3274ZM12.4065 34.3274H12.1547V34.8939H12.4065V34.3274Z" fill="white"/>
<path fill-rule="evenodd" clip-rule="evenodd" d="M16.1901 32.6256H14.8757V36.1502H15.6019V34.8454H16.1787L16.8462 36.1502H17.6232V36.1163L16.8604 34.67C16.9589 34.6256 17.0477 34.5727 17.127 34.5114C17.2432 34.421 17.3327 34.3088 17.3957 34.1749C17.4602 34.0393 17.4925 33.8771 17.4925 33.6883C17.4925 33.4575 17.4401 33.2631 17.3352 33.1049C17.2303 32.9467 17.0802 32.8273 16.8849 32.7466C16.6912 32.6659 16.4597 32.6256 16.1901 32.6256ZM15.3501 34.8454H15.6019V34.279H16.195C16.3225 34.279 16.4282 34.2564 16.5121 34.2112C16.596 34.166 16.659 34.1031 16.7009 34.0224C16.7445 33.9417 16.7663 33.8481 16.7663 33.7416C16.7663 33.6286 16.7453 33.531 16.7033 33.4487C16.6614 33.3663 16.5976 33.3034 16.5121 33.2598C16.4266 33.2163 16.3193 33.1945 16.1901 33.1945H15.6019V34.279H15.3453L15.3501 34.8454Z" fill="white"/>
<path d="M15.3453 34.279L15.3501 34.8454H15.6019V34.279H15.3453Z" fill="white"/>
<path d="M12.1547 34.3274V34.8939H12.4065V34.3274H12.1547Z" fill="white"/>
<path fill-rule="evenodd" clip-rule="evenodd" d="M22.8812 36.1502V33.1945H23.9657V32.6256H22.8812V33.1945H22.1574V32.6256H21.0898V33.1945H22.1574V36.1502H22.8812Z" fill="white"/>
<path d="M22.8812 32.6256H22.1574V33.1945H22.8812V32.6256Z" fill="white"/>
<path fill-rule="evenodd" clip-rule="evenodd" d="M36.6578 36.1502V35.5838H35.1182V32.6256H34.3919V36.1502H34.8834V35.5838H35.1182V36.1502H36.6578Z" fill="white"/>
<path d="M34.8834 36.1502H35.1182V35.5838H34.8834V36.1502Z" fill="white"/>
</g>
</g>
</svg>
